<?xml version="1.0" encoding="UTF-8"?>
<svg width="576px" height="288px" viewBox="0 0 576 288" version="1.1" xmlns="http://www.w3.org/2000/svg" xmlns:xlink="http://www.w3.org/1999/xlink">
    <title>wide</title>
    <g id="Page-1" stroke="none" stroke-width="1" fill="none" fill-rule="evenodd">
        <g id="Group" transform="translate(285.000000, 143.500000) rotate(-90.000000) translate(-285.000000, -143.500000) translate(176.458980, -131.000000)" fill="#000000">
            <path d="M108.54102,166 L132.46628,253.069704 L222.667802,248.917961 L147.252904,298.578254 L179.07525,383.082039 L108.54102,326.704084 L38.0067894,383.082039 L69.8291352,298.578254 L-5.58576229,248.917961 L84.6157593,253.069704 L108.54102,166 Z M120.426678,269.640795 L108.54102,226.385 L96.6553617,269.640795 L51.8440197,267.578 L89.3096211,292.24866 L73.5000197,334.228 L108.54102,306.221089 L143.58102,334.228 L127.772418,292.24866 L165.23702,267.578 L120.426678,269.640795 Z" id="Star-Copy" fill-rule="nonzero" transform="translate(108.541020, 274.541020) rotate(-270.000000) translate(-108.541020, -274.541020) "></path>
            <path d="M148.54102,0 L148.54102,144 L68.5410197,144 L68.5410197,0 L148.54102,0 Z M132.54102,16 L84.5410197,16 L84.5410197,128 L132.54102,128 L132.54102,16 Z" id="Combined-Shape-Copy-2"></path>
            <path d="M140.54102,405 L140.54102,549 L60.5410197,549 L60.5410197,405 L140.54102,405 Z M124.54102,421 L76.5410197,421 L76.5410197,533 L124.54102,533 L124.54102,421 Z" id="Combined-Shape-Copy-3"></path>
        </g>
    </g>
</svg>