<?xml version="1.0" encoding="UTF-8"?>
<!DOCTYPE svg PUBLIC "-//W3C//DTD SVG 1.1//EN" "http://www.w3.org/Graphics/SVG/1.1/DTD/svg11.dtd">
<svg version="1.1" xmlns="http://www.w3.org/2000/svg" xmlns:xlink="http://www.w3.org/1999/xlink" x="0" y="0" width="288" height="288" viewBox="0, 0, 288, 288">
  <g id="Page-1">
    <path d="M16,140.186 C18.593,140.186 20.722,138.725 22.389,135.802 C24.056,132.88 24.889,129.146 24.889,124.6 L24.889,103.447 C24.889,98.437 26.231,94.61 28.917,91.966 C31.602,89.322 34.796,88 38.5,88 L46,88 L46,96.35 L43.5,96.35 C41.278,96.35 39.704,97.162 38.778,98.785 C37.852,100.409 37.389,102.658 37.389,105.534 L37.389,126.548 C37.389,129.61 37.065,132.23 36.417,134.411 C35.769,136.591 34.981,138.377 34.056,139.768 C33.13,141.16 32.088,142.227 30.931,142.969 C29.773,143.711 28.731,144.175 27.806,144.361 L27.806,144.639 C28.731,144.825 29.773,145.265 30.931,145.961 C32.088,146.657 33.13,147.701 34.056,149.092 C34.981,150.484 35.769,152.293 36.417,154.52 C37.065,156.746 37.389,159.437 37.389,162.591 L37.389,183.326 C37.389,186.295 37.852,188.591 38.778,190.215 C39.704,191.838 41.278,192.65 43.5,192.65 L46,192.65 L46,201 L38.5,201 C34.796,201 31.602,199.678 28.917,197.034 C26.231,194.39 24.889,190.563 24.889,185.553 L24.889,164.539 C24.889,159.808 24.056,155.958 22.389,152.989 C20.722,150.02 18.593,148.536 16,148.536 L16,140.186 z" fill="#000000" id="path-1"/>
    <path d="M45,187 L62.302,150.73 L45.831,116 L60.78,116 L69.5,136.166 L78.22,116 L93.169,116 L76.421,150.73 L94,187 L79.051,187 L69.5,165.294 L59.949,187 z" fill="#000000" id="path-2"/>
    <path d="M98,187 L98,116.504 L112,116.504 L112,187 z" fill="#000000" id="path-3"/>
    <path d="M95.036,95.156 L105.065,85.127 L114.964,95.027 L104.935,105.055 z" fill="#000000" id="path-4"/>
    <path d="M124,187 L124,115.842 L138.38,115.842 L138.38,122.719 L138.662,122.719 C140.166,120.474 141.975,118.626 144.09,117.175 C146.205,115.725 148.907,115 152.197,115 C153.983,115 155.768,115.304 157.554,115.912 C159.34,116.52 160.938,117.526 162.348,118.93 C163.757,120.333 164.885,122.135 165.731,124.333 C166.577,126.532 167,129.222 167,132.404 L167,187 L152.62,187 L152.62,137.737 C152.62,135.117 152.009,133.058 150.787,131.561 C149.565,130.064 147.826,129.316 145.57,129.316 C142.845,129.316 140.965,130.158 139.931,131.842 C138.897,133.526 138.38,135.959 138.38,139.14 L138.38,187 L124,187 z" fill="#000000" id="path-5"/>
    <path d="M178.867,116.615 L193,116.615 L193,194.923 C193,201.902 190.829,207.16 186.488,210.696 C182.147,214.232 176.651,216 170,216 L170,202.6 C173.418,202.6 175.773,201.716 177.066,199.948 C177.805,198.924 178.29,197.598 178.521,195.969 C178.752,194.341 178.867,192.224 178.867,189.618 L178.867,116.615 z" fill="#000000" id="path-6"/>
    <path d="M175.903,95.156 L185.971,85.088 L195.964,95.082 L185.897,105.149 z" fill="#000000" id="path-7"/>
    <path d="M230.046,136.532 C229.954,134.127 229.194,132.324 227.766,131.121 C226.339,129.919 224.704,129.318 222.862,129.318 C220.651,129.318 218.947,130.035 217.75,131.468 C216.553,132.902 215.954,134.543 215.954,136.393 C215.954,137.688 216.276,138.96 216.921,140.208 C217.566,141.457 219.224,142.59 221.895,143.607 L230.184,146.936 C235.434,148.971 239.049,151.746 241.03,155.26 C243.01,158.775 244,162.613 244,166.775 C244,169.734 243.47,172.486 242.411,175.029 C241.352,177.572 239.901,179.815 238.059,181.757 C236.217,183.699 234.007,185.225 231.428,186.335 C228.849,187.445 226.039,188 223,188 C217.289,188 212.5,186.197 208.632,182.59 C206.697,180.832 205.132,178.636 203.934,176 C202.737,173.364 202.092,170.289 202,166.775 L215.263,166.775 C215.539,168.717 216.207,170.52 217.266,172.185 C218.326,173.85 220.191,174.682 222.862,174.682 C224.888,174.682 226.707,174.012 228.319,172.671 C229.931,171.329 230.737,169.457 230.737,167.052 C230.737,165.11 230.23,163.445 229.217,162.058 C228.204,160.671 226.362,159.468 223.691,158.451 L216.921,155.954 C212.5,154.289 209.023,151.815 206.49,148.532 C203.957,145.249 202.691,141.249 202.691,136.532 C202.691,133.572 203.243,130.821 204.349,128.277 C205.454,125.734 206.974,123.538 208.908,121.688 C210.75,119.838 212.914,118.428 215.401,117.457 C217.888,116.486 220.559,116 223.414,116 C226.27,116 228.918,116.509 231.359,117.526 C233.799,118.543 235.895,119.977 237.645,121.827 C239.395,123.676 240.776,125.873 241.789,128.416 C242.803,130.96 243.309,133.665 243.309,136.532 L230.046,136.532 z" fill="#000000" id="path-8"/>
    <path d="M278,148.536 C275.407,148.536 273.278,150.02 271.611,152.989 C269.944,155.958 269.111,159.808 269.111,164.539 L269.111,185.553 C269.111,190.563 267.769,194.39 265.083,197.034 C262.398,199.678 259.204,201 255.5,201 L248,201 L248,192.65 L250.5,192.65 C252.722,192.65 254.296,191.838 255.222,190.215 C256.148,188.591 256.611,186.295 256.611,183.326 L256.611,162.591 C256.611,159.437 256.935,156.746 257.583,154.52 C258.231,152.293 259.019,150.484 259.944,149.092 C260.87,147.701 261.889,146.657 263,145.961 C264.111,145.265 265.176,144.825 266.194,144.639 L266.194,144.361 C265.176,144.175 264.111,143.711 263,142.969 C261.889,142.227 260.87,141.16 259.944,139.768 C259.019,138.377 258.231,136.591 257.583,134.411 C256.935,132.23 256.611,129.61 256.611,126.548 L256.611,105.534 C256.611,102.658 256.148,100.409 255.222,98.785 C254.296,97.162 252.722,96.35 250.5,96.35 L248,96.35 L248,88 L255.5,88 C259.204,88 262.398,89.322 265.083,91.966 C267.769,94.61 269.111,98.437 269.111,103.447 L269.111,124.6 C269.111,129.146 269.944,132.88 271.611,135.802 C273.278,138.725 275.407,140.186 278,140.186 L278,148.536 z" fill="#000000" id="path-9"/>
    <path d="M146.5,275 C98.298,275 56.29,247.982 34.273,208.001 L46.841,208.003 C67.707,241.652 104.542,264 146.5,264 C188.458,264 225.293,241.652 246.159,208.003 L258.727,208.001 C236.71,247.982 194.702,275 146.5,275 z" fill="#000000" id="Path"/>
    <path d="M146.5,13 C194.702,13 236.71,40.018 258.727,80 L246.16,79.998 C225.293,46.349 188.459,24 146.5,24 C104.541,24 67.707,46.349 46.84,79.998 L34.273,80 C56.29,40.018 98.298,13 146.5,13 z" fill="#000000" id="Path"/>
  </g>
</svg>
